<svg width="105" height="31" viewBox="0 0 105 31" fill="none" xmlns="http://www.w3.org/2000/svg">
<path fill-rule="evenodd" clip-rule="evenodd" d="M12.8612 0H13.7898C17.0139 0.0620206 20.1851 1.20792 22.4629 3.23651C21.6219 3.99534 20.7635 4.72316 19.9399 5.48181C18.6609 4.45994 17.1189 3.6701 15.4368 3.39138C12.9489 2.92678 10.268 3.34486 8.183 4.5993C5.90522 5.91539 4.36323 8.14537 4.03031 10.53C3.66252 12.8838 4.41586 15.3615 6.15041 17.1887C7.815 18.9696 10.3557 20.0845 12.9838 20.162C15.4368 20.2859 17.9951 19.6199 19.7823 18.1024C21.1839 17.0339 21.8322 15.408 22.0425 13.8286C19.134 13.8286 16.2254 13.8439 13.3167 13.8286V10.6386H25.5642C26.195 14.0608 25.2839 17.9166 22.3403 20.3632C20.3779 22.0976 17.6622 23.1196 14.8938 23.321C12.2129 23.5532 9.4445 23.1041 7.06165 21.9582C4.20554 20.6111 1.92776 18.3346 0.806408 15.6558C-0.244766 13.1936 -0.262311 10.4062 0.718896 7.92848C1.61238 5.66768 3.3296 3.6701 5.53721 2.27649C7.65731 0.898189 10.2329 0.139362 12.8612 0Z" fill="#08568A"/>
<path fill-rule="evenodd" clip-rule="evenodd" d="M83.1211 0.80542H86.8707V22.9185C85.6265 22.9185 84.365 22.9338 83.1211 22.903C83.1384 15.5475 83.1211 8.17645 83.1211 0.80542Z" fill="#08568A"/>
<path fill-rule="evenodd" clip-rule="evenodd" d="M33.9065 8.47069C36.2193 8.08343 38.725 8.51702 40.6348 9.74045C42.3693 10.8243 43.5784 12.5279 43.9464 14.3861C44.4194 16.5385 43.8236 18.8922 42.2467 20.5957C40.5473 22.5003 37.7613 23.5223 35.0454 23.3674C32.5572 23.2436 30.1393 22.1442 28.6675 20.3478C27.0031 18.3657 26.6 15.6403 27.5111 13.3175C28.4223 10.8243 30.9979 8.91978 33.9065 8.47069ZM34.4321 11.4128C33.486 11.6297 32.6099 12.1096 31.9791 12.7911C30.2795 14.5873 30.3847 17.5141 32.2594 19.1864C33.3283 20.1466 34.9403 20.5957 36.4296 20.3323C37.8137 20.1156 39.0228 19.2949 39.6886 18.2109C40.8451 16.3682 40.5122 13.8286 38.7425 12.3885C37.6036 11.4593 35.939 11.0722 34.4321 11.4128Z" fill="#08568A"/>
<path fill-rule="evenodd" clip-rule="evenodd" d="M52.4791 8.47056C55.1249 8.02146 58.0158 8.67176 59.9958 10.3133C63.2199 12.8683 63.5702 17.6533 60.8193 20.5956C59.1547 22.4538 56.4565 23.4758 53.7932 23.3673C51.2527 23.3055 48.747 22.1906 47.2401 20.3477C45.5407 18.3191 45.1726 15.5319 46.1363 13.1625C47.1 10.7469 49.6232 8.90415 52.4791 8.47056ZM53.0048 11.4127C52.0586 11.6295 51.1825 12.1095 50.5517 12.7754C48.8698 14.5408 48.9398 17.4211 50.7445 19.1089C51.8132 20.1155 53.4778 20.6111 55.0198 20.3322C56.3863 20.1 57.613 19.2948 58.2788 18.2107C59.4177 16.3525 59.0848 13.813 57.2976 12.3729C56.1587 11.4437 54.4941 11.0721 53.0048 11.4127Z" fill="#08568A"/>
<path fill-rule="evenodd" clip-rule="evenodd" d="M68.2279 9.36863C70.243 8.25373 72.9237 7.944 75.0964 8.90421C75.7798 9.16743 76.3403 9.61652 76.8836 10.0656L76.9011 8.78035L80.4404 8.79567V22.4539C80.4228 24.5133 79.8272 26.6967 78.1451 28.1989C76.3052 29.8557 73.4844 30.3668 70.9437 30.0261C68.2279 29.67 65.8624 27.9202 64.8113 25.7057C65.8624 25.2566 66.9664 24.9005 68.0527 24.4824C68.6659 25.7522 69.9101 26.8361 71.4694 27.084C73.0287 27.3317 74.8334 26.991 75.8497 25.845C76.936 24.6681 76.936 23.0578 76.8836 21.6177C76.0776 22.3145 75.1488 22.9338 74.0275 23.1662C71.592 23.7701 68.9113 23.0268 67.0364 21.5712C65.1442 20.1155 64.0228 17.8702 64.1279 15.6403C64.1805 13.1161 65.7925 10.6849 68.2279 9.36863ZM71.8549 11.3509C70.786 11.5058 69.7873 12.0322 69.1039 12.76C67.4571 14.4944 67.457 17.2663 69.1214 18.9696C70.0678 19.9762 71.592 20.5336 73.0638 20.3943C74.4481 20.2704 75.7271 19.4961 76.4105 18.4277C77.5669 16.6158 77.3742 14.1536 75.8146 12.5741C74.851 11.5986 73.3092 11.1185 71.8549 11.3509Z" fill="#08568A"/>
<path fill-rule="evenodd" clip-rule="evenodd" d="M91.3754 10.1583C93.4779 8.42397 96.7194 7.83551 99.4178 8.74921C101.976 9.60088 103.605 11.7533 104.429 13.9678C100.627 15.3614 96.842 16.7395 93.0399 18.1333C93.5656 19.016 94.3716 19.8212 95.4579 20.1464C96.9823 20.6263 98.8044 20.4561 100.084 19.558C100.592 19.2172 100.995 18.7681 101.38 18.3345L104.271 20.0379C102.904 21.8498 100.609 23.1195 98.1387 23.3209C95.4052 23.6151 92.4967 22.6859 90.7271 20.7967C87.8185 17.8236 88.0988 12.8372 91.3754 10.1583ZM93.2503 13.0231C92.6544 13.7819 92.4092 14.7109 92.4267 15.6246C94.9673 14.6956 97.5078 13.7664 100.049 12.8219C99.6279 11.9547 98.6118 11.4281 97.578 11.2887C95.9134 11.0255 94.1788 11.8152 93.2503 13.0231Z" fill="#08568A"/>
</svg>
