<svg width="106" height="33" viewBox="0 0 106 33" fill="none" xmlns="http://www.w3.org/2000/svg">
<g clip-path="url(#clip0_363_6286)">
<path d="M0 22.7644V0.474858H3.91524V22.7643H0V22.7645V22.7644ZM13.938 6.59414C8.9178 6.59414 5.44395 10.4539 5.44395 14.8719C5.44395 19.8024 9.22328 23.1993 13.977 23.1993C18.4886 23.1993 22.4037 19.8652 22.4037 14.8612C22.4037 10.6535 19.1594 6.59421 13.938 6.59421V6.59414ZM13.8918 10.3714C16.5191 10.3714 18.4527 12.4162 18.4527 14.8861C18.4527 17.5048 16.3206 19.415 13.9626 19.415C11.1766 19.415 9.42308 17.2068 9.42308 14.8931C9.42315 12.3572 11.4028 10.3713 13.8918 10.3713V10.3714ZM32.2411 6.59414C27.2211 6.59414 23.7471 10.4539 23.7471 14.8719C23.7471 19.8024 27.5264 23.1993 32.2801 23.1993C36.7917 23.1993 40.7068 19.8652 40.7068 14.8612C40.7068 11.9146 39.4307 10.6072 39.4307 10.6072L40.516 10.235V7.05735H34.955C34.955 7.05735 33.7493 6.59414 32.2411 6.59414ZM32.195 10.3714C34.8221 10.3714 36.7559 12.4162 36.7559 14.8861C36.7559 17.5048 34.6238 19.415 32.2659 19.415C29.4798 19.415 27.7263 17.2068 27.7263 14.8931C27.7264 12.3572 29.7061 10.3713 32.195 10.3713V10.3714ZM36.7282 23.854C36.7282 26.4726 34.5963 28.3971 32.2383 28.3971C29.4521 28.3971 27.6916 26.1674 27.6916 23.854H23.7195C23.7195 28.7846 27.4986 32.1813 32.2525 32.1813C36.764 32.1813 40.6791 28.8576 40.6791 23.854H36.7282ZM42.275 22.7644V7.05735H46.1905V22.7644H42.275ZM49.9924 22.7644V10.5756H47.8928V7.05735H49.9924V2.234H53.9078V7.05735H56.0641V10.5756H53.9078V22.7644H49.9924ZM46.8174 2.59627C46.8174 4.02819 45.6565 5.18905 44.2247 5.18905C42.7925 5.18905 41.6318 4.02812 41.6318 2.59627C41.6318 1.16428 42.7927 0.00341797 44.2247 0.00341797C45.6566 0.00341797 46.8174 1.16428 46.8174 2.59627ZM64.8668 6.58355C59.8228 6.58355 56.5713 10.4452 56.5713 15.0137C56.5713 19.7348 59.8338 23.2099 64.9484 23.2099C69.7194 23.2099 72.0663 20.2306 72.0663 20.2306L69.449 17.6097C69.449 17.6097 67.4727 19.7413 64.998 19.7413C62.935 19.7413 61.2856 18.5898 60.7101 16.4784H72.9103V15.4003C72.9105 11.0983 70.4204 6.58355 64.8668 6.58355ZM64.7427 10.0309C66.5463 10.0309 68.391 10.9958 68.8035 13.3008H60.6038C60.9284 11.6805 62.346 10.0309 64.7427 10.0309ZM82.7039 23.212C77.6459 23.212 74.1993 19.3594 74.1993 14.8172C74.1993 10.1296 78.0945 6.58062 82.6877 6.58062C87.128 6.58062 89.401 9.71516 89.401 9.71516L86.6695 12.4342C86.6695 12.4342 85.0873 10.3899 82.669 10.3899C79.989 10.3899 78.1564 12.4402 78.1564 14.8773C78.1564 17.4506 80.1057 19.425 82.6389 19.425C85.0961 19.425 86.6657 17.3841 86.6657 17.3841L89.4244 20.1016C89.4244 20.1016 87.1736 23.2121 82.7041 23.2121H82.7039V23.2119V23.212ZM90.849 22.7758V0.4182H94.7643V8.63249C94.7643 8.63249 96.2635 6.58062 99.5248 6.58062C103.625 6.58062 106 9.62831 106 13.5263V22.7757H102.084V14.1181C102.084 11.4993 100.454 10.4128 98.648 10.4128C96.5901 10.4128 94.7644 11.584 94.7644 14.3206V22.7758H90.849Z" fill="#08568A"/>
</g>
<defs>
<clipPath id="clip0_363_6286">
<rect width="106" height="32.1816" fill="white"/>
</clipPath>
</defs>
</svg>
