<svg width="117" height="33" viewBox="0 0 117 33" fill="none" xmlns="http://www.w3.org/2000/svg">
<path fill-rule="evenodd" clip-rule="evenodd" d="M72.5803 25.6907C65.8066 30.3617 55.954 32.8503 47.4561 32.8503C35.5509 32.8503 24.8772 28.7536 16.7488 21.9385C16.133 21.4025 16.6666 20.6751 17.4466 21.0962C26.1909 25.8438 36.9877 28.677 48.154 28.677C55.6666 28.677 63.9593 27.2221 71.5951 24.1975C72.7445 23.7763 73.6888 24.9249 72.5803 25.6907Z" fill="#08568A"/>
<path fill-rule="evenodd" clip-rule="evenodd" d="M75.4143 22.6659C74.5522 21.6321 69.667 22.1682 67.4912 22.4362C66.8343 22.5128 66.7112 21.9767 67.327 21.5939C71.227 19.0286 77.5901 19.7944 78.3291 20.6367C79.068 21.479 78.1238 27.4518 74.4701 30.2851C73.8954 30.7062 73.3617 30.4765 73.608 29.9022C74.4291 27.9878 76.2765 23.7379 75.4143 22.6659Z" fill="#08568A"/>
<path fill-rule="evenodd" clip-rule="evenodd" d="M67.6137 3.59898V1.11032C67.6137 0.727452 67.901 0.497728 68.2705 0.497728H80.1758C80.5453 0.497728 80.8737 0.76574 80.8737 1.11032V3.21611C80.8737 3.5607 80.5453 4.02014 79.9705 4.78589L73.8126 12.9793C76.1116 12.941 78.5337 13.2473 80.5863 14.3194C81.0379 14.5491 81.161 14.932 81.2021 15.2765V17.9184C81.2021 18.3012 80.7916 18.7224 80.34 18.4927C76.6863 16.6932 71.8011 16.5017 67.7779 18.531C67.3674 18.7224 66.9158 18.3395 66.9158 17.9566V15.4297C66.9158 15.0468 66.9158 14.3577 67.3674 13.7451L74.5105 4.21158H68.3116C67.9421 4.21158 67.6137 3.94357 67.6137 3.59898ZM24.2211 19.0287H20.6084C20.28 18.9904 19.9926 18.7607 19.9516 18.4544V1.14861C19.9516 0.804029 20.28 0.536017 20.6495 0.536017H24.0158C24.3853 0.536017 24.6316 0.804027 24.6726 1.11032V3.36926H24.7547C25.6168 1.1869 27.3 0.153146 29.5168 0.153146C31.7747 0.153146 33.2116 1.1869 34.1968 3.36926C35.0589 1.1869 37.0705 0.153146 39.2053 0.153146C40.7242 0.153146 42.3663 0.727452 43.3926 2.0675C44.5421 3.52241 44.2958 5.6282 44.2958 7.50427V18.4544C44.2958 18.799 43.9674 19.067 43.5979 19.067H40.0263C39.6568 19.0287 39.3695 18.7607 39.3695 18.4544V9.26547C39.3695 8.53801 39.4516 6.70023 39.2874 6.01107C39 4.86245 38.22 4.51787 37.1526 4.51787C36.2905 4.51787 35.3463 5.0539 34.9768 5.9345C34.6074 6.8151 34.6484 8.27 34.6484 9.26547V18.4544C34.6484 18.799 34.32 19.067 33.9505 19.067H30.3379C29.9684 19.0287 29.6811 18.7607 29.6811 18.4544V9.26547C29.6811 7.35111 30.0095 4.47958 27.4642 4.47958C24.8779 4.47958 24.96 7.23625 24.96 9.26547V18.4544C24.9189 18.7607 24.6316 19.0287 24.2211 19.0287ZM91.1368 0.153146C96.5147 0.153146 99.4295 4.4413 99.4295 9.91635C99.4295 15.2 96.2274 19.4115 91.1368 19.4115C85.8821 19.4115 83.0084 15.1234 83.0084 9.76321C82.9674 4.36473 85.8821 0.153146 91.1368 0.153146ZM91.1368 3.71384C88.4684 3.71384 88.3042 7.1214 88.3042 9.22719C88.3042 11.333 88.2632 15.8509 91.0958 15.8509C93.8874 15.8509 94.0516 12.2136 94.0516 9.99293C94.0516 8.53802 93.9695 6.77682 93.5179 5.39848C93.1074 4.1733 92.2863 3.71384 91.1368 3.71384ZM106.367 19.0287H102.755C102.385 18.9904 102.098 18.7224 102.098 18.4161V1.07203C102.139 0.765737 102.426 0.497728 102.796 0.497728H106.162C106.491 0.497728 106.737 0.727457 106.819 0.995467V3.63727H106.901C107.927 1.26347 109.323 0.153146 111.827 0.153146C113.428 0.153146 115.029 0.689161 116.056 2.18236C117 3.56069 117 5.89621 117 7.58084V18.4927C116.959 18.799 116.672 19.0287 116.302 19.0287H112.689C112.361 18.9904 112.074 18.7607 112.033 18.4927V9.07403C112.033 7.15968 112.279 4.40302 109.775 4.40302C108.913 4.40302 108.092 4.93904 107.681 5.78135C107.188 6.85339 107.106 7.88713 107.106 9.07403V18.4161C107.065 18.7607 106.737 19.0287 106.367 19.0287ZM58.1305 10.7587C58.1305 12.0604 58.1716 13.1708 57.4737 14.3577C56.8989 15.3148 55.9958 15.8891 54.9695 15.8891C53.5737 15.8891 52.7526 14.8937 52.7526 13.4388C52.7526 10.5672 55.5032 10.0312 58.1305 10.0312V10.7587ZM61.7842 18.9904C61.5379 19.1818 61.2095 19.2201 60.9221 19.067C59.7316 18.1481 59.4853 17.6886 58.8284 16.808C56.8579 18.6841 55.421 19.2584 52.8758 19.2584C49.8379 19.2584 47.4568 17.4972 47.4568 14.0131C47.4568 11.2564 49.0579 9.41862 51.3158 8.49973C53.2863 7.6957 56.0368 7.54256 58.1305 7.31284V6.89168C58.1305 6.08765 58.2126 5.13047 57.6789 4.44131C57.2274 3.82871 56.4063 3.56069 55.6674 3.56069C54.2716 3.56069 53.04 4.21158 52.7526 5.58992C52.6705 5.89621 52.4653 6.2025 52.1368 6.2025L48.6474 5.85792C48.36 5.78135 48.0316 5.58992 48.1137 5.16876C48.9347 1.1869 52.7526 0 56.201 0C57.9663 0 60.2653 0.421156 61.6611 1.68463C63.4263 3.21611 63.2621 5.28362 63.2621 7.50427V12.7496C63.2621 14.3194 63.96 15.0085 64.6168 15.8891C64.8632 16.1954 64.9042 16.5783 64.6168 16.7697C63.8368 17.344 62.5232 18.4161 61.7842 18.9904ZM10.7147 10.7587C10.7147 12.0604 10.7558 13.1708 10.0579 14.3577C9.48316 15.3148 8.58 15.8891 7.55368 15.8891C6.15789 15.8891 5.33684 14.8937 5.33684 13.4388C5.33684 10.5672 8.08737 10.0312 10.7147 10.0312V10.7587ZM14.3274 18.9904C14.081 19.1818 13.7526 19.2201 13.4653 19.067C12.2747 18.1481 12.0284 17.6886 11.3716 16.808C9.40105 18.6841 7.96421 19.2584 5.41895 19.2584C2.38105 19.2584 0 17.4972 0 14.0131C0 11.2564 1.60105 9.41862 3.85894 8.49973C5.82947 7.6957 8.58 7.54256 10.6737 7.31284V6.89168C10.6737 6.08765 10.7558 5.13047 10.2221 4.44131C9.77052 3.82871 8.94947 3.56069 8.21053 3.56069C6.81474 3.56069 5.58316 4.21158 5.29579 5.58992C5.21368 5.89621 5.00842 6.2025 4.68 6.2025L1.19052 5.85792C0.903155 5.78135 0.574739 5.58992 0.656845 5.16876C1.4779 1.1869 5.29579 0 8.74421 0C10.5095 0 12.8084 0.421156 14.2042 1.68463C15.9695 3.21611 15.8053 5.28362 15.8053 7.50427V12.7496C15.8053 14.3194 16.5032 15.0085 17.16 15.8891C17.4063 16.1954 17.4474 16.5783 17.16 16.7697C16.38 17.344 15.0663 18.4161 14.3274 18.9904Z" fill="#08568A"/>
</svg>
