<svg width="123" height="32" viewBox="0 0 123 32" fill="none" xmlns="http://www.w3.org/2000/svg">
<g clip-path="url(#clip0_363_6269)">
<path fill-rule="evenodd" clip-rule="evenodd" d="M39.3516 24.5066L40.8866 20.9396C42.5446 22.1795 44.7537 22.824 46.9333 22.824C48.5421 22.824 49.5606 22.2041 49.5606 21.2643C49.536 18.6371 39.9223 20.6936 39.8485 14.1057C39.8239 10.7601 42.7956 8.18205 47.0071 8.18205C49.5114 8.18205 52.0107 8.80197 53.7967 10.214L52.36 13.8548C50.7266 12.8118 48.6946 12.0689 46.7611 12.0689C45.4474 12.0689 44.5815 12.6888 44.5815 13.4809C44.6061 16.059 54.2936 14.6469 54.392 20.9396C54.392 24.359 51.4941 26.7649 47.3318 26.7649C44.2814 26.76 41.4819 26.0417 39.3516 24.5066ZM98.2981 19.6506C97.5306 20.9888 96.0939 21.9039 94.431 21.9039C91.9759 21.9039 89.998 19.9212 89.998 17.471C89.998 15.0209 91.9808 13.0381 94.431 13.0381C96.089 13.0381 97.5306 13.9532 98.2981 15.2915L102.534 12.9397C100.95 10.1156 97.8996 8.18205 94.431 8.18205C89.2994 8.18205 85.1371 12.3444 85.1371 17.4759C85.1371 22.6075 89.2994 26.7698 94.431 26.7698C97.9242 26.7698 100.95 24.8609 102.534 22.0122L98.2981 19.6506ZM56.5224 0.472412H61.8261V26.4156H56.5224V0.472412ZM104.615 0.472412V26.4156H109.919V18.6321L116.212 26.4156H123.001L114.997 17.1709L122.406 8.54613H115.912L109.914 15.7047V0.472412H104.615Z" fill="#08568A"/>
<path d="M77.5843 19.6996C76.8167 20.9641 75.2325 21.9038 73.4465 21.9038C70.9915 21.9038 69.0136 19.921 69.0136 17.4709C69.0136 15.0207 70.9964 13.038 73.4465 13.038C75.2325 13.038 76.8167 14.0269 77.5843 15.3159V19.6996ZM77.5843 8.55092V10.6567C76.7183 9.19544 74.5634 8.177 72.3051 8.177C67.6459 8.177 63.9805 12.2901 63.9805 17.4463C63.9805 22.6024 67.6459 26.7648 72.3051 26.7648C74.5585 26.7648 76.7134 25.7512 77.5843 24.2851V26.3908H82.888V8.55092H77.5843Z" fill="#08568A"/>
<path fill-rule="evenodd" clip-rule="evenodd" d="M6.56704 19.6751C6.56704 21.4857 5.1058 22.9469 3.29524 22.9469C1.48468 22.9469 0.0234375 21.4808 0.0234375 19.6751C0.0234375 17.8695 1.48468 16.4033 3.29524 16.4033H6.56704V19.6751ZM8.20048 19.6751C8.20048 17.8646 9.66172 16.4033 11.4723 16.4033C13.2828 16.4033 14.7441 17.8646 14.7441 19.6751V27.8522C14.7441 29.6627 13.2828 31.124 11.4723 31.124C9.66172 31.124 8.20048 29.6627 8.20048 27.8522V19.6751Z" fill="#08568A"/>
<path fill-rule="evenodd" clip-rule="evenodd" d="M11.4734 6.5436C9.66288 6.5436 8.20164 5.08236 8.20164 3.2718C8.20164 1.46124 9.66288 0 11.4734 0C13.284 0 14.7452 1.46124 14.7452 3.2718V6.5436H11.4734ZM11.4734 8.20164C13.284 8.20164 14.7452 9.66288 14.7452 11.4734C14.7452 13.284 13.284 14.7452 11.4734 14.7452H3.2718C1.46124 14.7452 0 13.2791 0 11.4734C0 9.6678 1.46124 8.20164 3.2718 8.20164H11.4734Z" fill="#08568A"/>
<path fill-rule="evenodd" clip-rule="evenodd" d="M24.5794 11.4734C24.5794 9.66288 26.0406 8.20164 27.8512 8.20164C29.6617 8.20164 31.123 9.66288 31.123 11.4734C31.123 13.284 29.6617 14.7452 27.8512 14.7452H24.5794V11.4734ZM22.9459 11.4734C22.9459 13.284 21.4847 14.7452 19.6741 14.7452C17.8636 14.7452 16.4023 13.284 16.4023 11.4734V3.2718C16.4023 1.46124 17.8636 0 19.6741 0C21.4847 0 22.9459 1.46124 22.9459 3.2718V11.4734Z" fill="#08568A"/>
<path fill-rule="evenodd" clip-rule="evenodd" d="M19.6741 24.5804C21.4847 24.5804 22.9459 26.0416 22.9459 27.8522C22.9459 29.6627 21.4847 31.124 19.6741 31.124C17.8636 31.124 16.4023 29.6627 16.4023 27.8522V24.5804H19.6741ZM19.6741 22.9469C17.8636 22.9469 16.4023 21.4857 16.4023 19.6751C16.4023 17.8646 17.8636 16.4033 19.6741 16.4033H27.8758C29.6863 16.4033 31.1476 17.8646 31.1476 19.6751C31.1476 21.4857 29.6863 22.9469 27.8758 22.9469H19.6741Z" fill="#08568A"/>
</g>
<defs>
<clipPath id="clip0_363_6269">
<rect width="123" height="31.1239" fill="white"/>
</clipPath>
</defs>
</svg>
