<svg width="150" height="28" viewBox="0 0 150 28" fill="none" xmlns="http://www.w3.org/2000/svg">
<path d="M77.2234 13.4478C75.9848 13.4478 75.092 13.8265 74.1867 14.2124V22.9445C75.0538 23.0216 75.5509 23.0216 76.3736 23.0216C79.3464 23.0216 79.754 21.7518 79.754 19.979V15.8085C79.754 14.4993 79.2881 13.4478 77.2234 13.4478ZM57.48 12.9712C55.4173 12.9712 54.9466 14.0273 54.9466 15.3352V16.0701H60.0105V15.3352C60.0105 14.0273 59.5398 12.9712 57.48 12.9712ZM19.2331 22.06C19.2331 23.0947 19.7566 23.6321 20.9118 23.6321C22.1511 23.6321 22.8849 23.2553 23.7896 22.8681V20.7968H21.0799C19.7969 20.7968 19.2331 21.0195 19.2331 22.06ZM96.4287 13.4478C94.3626 13.4478 93.6468 14.4993 93.6468 15.8085V20.5863C93.6468 21.8988 94.3626 22.9536 96.4287 22.9536C98.4893 22.9536 99.2106 21.8988 99.2106 20.5863V15.8085C99.2099 14.4993 98.4886 13.4478 96.4287 13.4478ZM9.10801 27.4174H3.03461V13.7074H0V8.9833H3.03531V6.14599C3.03531 2.29147 4.74805 0 9.61621 0H13.6693V4.72539H11.136C9.24062 4.72539 9.11565 5.38583 9.11565 6.61801L9.10801 8.98265H13.6971L13.1604 13.7067H9.10801V27.4174ZM29.8643 27.453H24.8025L24.5838 26.259C22.2726 27.453 20.2099 27.6466 18.8492 27.6466C15.137 27.6466 13.1611 25.3338 13.1611 22.1351C13.1611 18.3616 15.4667 17.0148 19.5914 17.0148H23.7896V16.1989C23.7896 14.2727 23.5528 13.7074 20.3766 13.7074H15.1835L15.691 8.9833H21.3673C28.3363 8.9833 29.8643 11.0365 29.8643 16.2371V27.453ZM47.0772 14.0538C43.9273 13.5501 43.0227 13.4393 41.5071 13.4393C38.7849 13.4393 37.9622 13.9994 37.9622 16.1556V20.2341C37.9622 22.3903 38.7849 22.9529 41.5071 22.9529C43.0227 22.9529 43.9273 22.8403 47.0772 22.3346V26.9428C44.3182 27.5197 42.5207 27.6712 41.0017 27.6712C34.4812 27.6712 31.8895 24.4732 31.8895 19.8534V16.5441C31.8895 11.9203 34.4812 8.71653 41.0017 8.71653C42.5207 8.71653 44.3182 8.86869 47.0772 9.44819V14.0538ZM66.0833 19.8534H54.9459V20.2341C54.9459 22.3903 55.7693 22.9529 58.4908 22.9529C60.9374 22.9529 62.4307 22.8403 65.5751 22.3346V26.9428C62.5425 27.5197 60.9624 27.6712 57.9875 27.6712C51.4663 27.6712 48.8732 24.4732 48.8732 19.8534V16.0694C48.8732 12.0272 50.797 8.71653 57.4793 8.71653C64.1615 8.71653 66.0833 11.989 66.0833 16.0694V19.8534ZM85.826 19.9408C85.826 24.4059 84.4576 27.6628 76.1681 27.6628C73.1744 27.6628 71.4186 27.4174 68.1147 26.9434V1.4193L74.186 0.474612V9.40287C75.4981 8.94833 77.1963 8.71718 78.7417 8.71718C84.8137 8.71718 85.8253 11.256 85.8253 15.3358V19.9408H85.826ZM105.288 20.0379C105.288 23.8898 103.583 27.6259 96.4489 27.6259C89.3111 27.6259 87.5741 23.8898 87.5741 20.0379V16.3187C87.5741 12.4649 89.3111 8.72818 96.4489 8.72818C103.583 8.72818 105.288 12.4649 105.288 16.3187V20.0379ZM124.737 20.0379C124.737 23.8898 123.03 27.6259 115.897 27.6259C108.759 27.6259 107.022 23.8898 107.022 20.0379V16.3187C107.022 12.4649 108.759 8.72818 115.897 8.72818C123.03 8.72818 124.737 12.4649 124.737 16.3187V20.0379ZM144.697 27.4174H138.116L132.55 18.752V27.4174H126.476V1.41865L132.55 0.473964V17.211L138.116 8.9833H144.697L138.62 17.9621L144.697 27.4174ZM115.876 13.4478C113.814 13.4478 113.098 14.4993 113.098 15.8085V20.5863C113.098 21.8988 113.814 22.9536 115.876 22.9536C117.936 22.9536 118.665 21.8988 118.665 20.5863V15.8085C118.665 14.4993 117.936 13.4478 115.876 13.4478ZM148.163 24.1838C149.186 24.1838 150 24.9614 150 25.9327C150 26.9188 149.185 27.688 148.155 27.688C147.131 27.688 146.3 26.9188 146.3 25.9327C146.3 24.9614 147.131 24.1838 148.155 24.1838H148.163ZM148.155 24.4558C147.331 24.4558 146.657 25.1168 146.657 25.9327C146.657 26.7634 147.332 27.4161 148.163 27.4161C148.995 27.4239 149.659 26.7634 149.659 25.9405C149.659 25.1175 148.995 24.4558 148.163 24.4558H148.155ZM147.806 26.9505H147.473V24.999C147.648 24.9763 147.814 24.9537 148.064 24.9537C148.381 24.9537 148.588 25.0158 148.715 25.1007C148.838 25.1868 148.904 25.3182 148.904 25.504C148.904 25.7617 148.722 25.9165 148.498 25.9793V25.9942C148.68 26.0259 148.804 26.18 148.847 26.4669C148.895 26.7705 148.946 26.8864 148.979 26.9499H148.63C148.58 26.8864 148.53 26.7084 148.488 26.4513C148.439 26.2033 148.305 26.1101 148.038 26.1101H147.807V26.9505H147.806ZM147.806 25.8705H148.048C148.321 25.8705 148.554 25.7766 148.554 25.5351C148.554 25.3642 148.422 25.1939 148.048 25.1939C147.939 25.1939 147.863 25.2017 147.806 25.2088V25.8705Z" fill="#08568A"/>
</svg>
